# xmcd CD database file
# Copyright (C) 1996 Ti Kan
#
# Track frame offsets:
#  150
#  22550
#  41125
#  62950
#  79075
#  100550
#  117250
#  143625
#  163025
#  187937
#
# Disc length: 2805 seconds
#
# Revision: 1
# Processed by: cddbd v1.4b41PL1 Copyright (c) Steve Scherf et al.
# Submitted via: CDWizzard Release:4.13
#
DISCID=740af30a
DTITLE=Barker Sally - This Rhythm Is Mine
DYEAR=1900
DGENRE=
TTITLE0=Money`s Talking
TTITLE1=THis Rhythm Is Mine
TTITLE2=Angry Women
TTITLE3=Lay Your Body Down
TTITLE4=While You Sleep
TTITLE5=Big World
TTITLE6=Chinese Whisper
TTITLE7=Or Did You Jump
TTITLE8=Married Man
TTITLE9=The SImple Life
EXTD=
EXTT0=
EXTT1=
EXTT2=
EXTT3=
EXTT4=
EXTT5=
EXTT6=
EXTT7=
EXTT8=
EXTT9=
PLAYORDER=
